<?xml version="1.0" standalone="no"?>
<!DOCTYPE svg PUBLIC "-//W3C//DTD SVG 20010904//EN"
 "http://www.w3.org/TR/2001/REC-SVG-20010904/DTD/svg10.dtd">
<svg version="1.0" xmlns="http://www.w3.org/2000/svg"
 width="70.000000pt" height="70.000000pt" viewBox="0 0 70.000000 70.000000"
 preserveAspectRatio="xMidYMid meet">
<metadata>
Created by potrace 1.11, written by Peter Selinger 2001-2013
</metadata>
<g transform="translate(0.000000,70.000000) scale(0.100000,-0.100000)"
fill="#000000" stroke="none">
<path d="M265 687 c-70 -18 -110 -42 -160 -92 -171 -171 -118 -460 103 -563
48 -22 71 -27 142 -27 104 0 174 29 245 100 71 71 100 141 100 245 0 104 -29
174 -100 245 -84 85 -216 121 -330 92z m172 -52 c28 -8 62 -24 75 -35 l23 -19
-51 -1 -52 0 -37 -152 c-21 -84 -41 -159 -44 -166 -4 -7 -24 62 -46 152 l-38
165 -51 3 -51 3 36 22 c67 42 154 52 236 28z m186 -165 c33 -69 31 -178 -5
-251 -16 -31 -37 -64 -48 -74 -20 -18 -20 -18 -20 206 l1 224 25 -30 c14 -16
35 -50 47 -75z m-485 -227 l-3 -108 -32 49 c-67 100 -67 226 -1 329 l33 52 3
-108 c1 -59 1 -155 0 -214z m127 31 l37 -155 46 3 46 3 38 150 37 150 0 -152
1 -152 38 -3 37 -3 -56 -28 c-73 -36 -149 -44 -221 -23 -31 9 -66 25 -79 36
l-24 19 28 1 27 0 0 155 c0 85 2 155 4 155 2 0 21 -70 41 -156z"/>
</g>
</svg>
